<?xml version="1.0" encoding="utf-8"?>
<!-- Generator: Adobe Illustrator 26.2.1, SVG Export Plug-In . SVG Version: 6.00 Build 0)  -->
<svg version="1.1" id="Capa_1" xmlns="http://www.w3.org/2000/svg" xmlns:xlink="http://www.w3.org/1999/xlink" x="0px" y="0px"
	 viewBox="0 0 230.4 62.2" style="enable-background:new 0 0 230.4 62.2;" xml:space="preserve">
<style type="text/css">
	.st0{fill:#FFFFFF;}
	.st1{fill:#BC955C;}
</style>
<g>
	<path class="st0" d="M8,31.6c0.1-0.6,0.2-5,0.2-6.7v-6.5c0-2.2,0-5.8-0.3-6.2c-0.3-0.4-2-0.9-3.2-1.2l0.4-1.8h5
		c1.2,0,5.2-0.2,6.8-0.2c5.7,0,9.3,2.1,9.3,6.6c0,2.8-1.9,4.7-4,5.8c2.9,0.7,5.4,2.7,5.4,6.2c0,4.7-4.3,7.2-9.3,7.2
		c-2.3,0-5.4-0.3-7.9-0.3H5.1l-0.4-1.8L8,31.6z M17.4,32c1,0,2.4-0.1,3.4-0.5c1.1-0.8,1.9-2.3,1.9-4.1c0-2.6-1.7-4.2-5-4.2h-4.9v1.9
		c0,2.2-0.1,5.8,0.3,6.2C13.5,31.8,15.6,32,17.4,32z M12.9,20.3l5.8,0.2c1.3-0.7,2.8-2.5,2.8-4.8c0-1.5-0.5-2.6-1.1-3.3
		c-0.9-0.7-2.4-1.1-4-1.1c-1,0-2.4,0.2-3.3,0.3c-0.1,0.7-0.2,5-0.2,6.7L12.9,20.3C12.8,20.3,12.9,20.3,12.9,20.3z"/>
	<path class="st0" d="M34,31.6c0.1-0.6,0.2-5,0.2-6.7v-6.5c0-2.2,0-5.8-0.3-6.2c-0.3-0.4-2-0.9-3.2-1.2l0.4-1.8H42l0.4,1.8l-3.2,0.9
		c-0.1,0.6-0.2,5-0.2,6.7v6.5c0,2.2,0,5.8,0.3,6.2c0.3,0.4,2,0.9,3.2,1.2L42,34.3H31.2l-0.4-1.8L34,31.6z"/>
	<path class="st0" d="M49.5,31.6c0.1-0.6,0.2-5,0.2-6.7v-6.5c0-2.2,0-6-0.3-6.3c-0.3-0.4-2-0.9-3.2-1.1l0.4-1.8h9.4
		c4.3,0,7.8-0.1,10.7-0.3c0.3,0.3,0.7,0.9,0.9,1.3c-0.3,1.7-0.7,4.5-1,6.2c-0.7,0.1-2.1-0.1-2.9-0.2L63,11.7
		c-1.2-0.1-2.9-0.1-4.4-0.1c-1.4,0-2.8,0.1-4,0.1c-0.1,0.7-0.2,5.1-0.2,6.9v2.1l8.1-0.3l0.6,0.7c-0.1,0.6-0.3,1.7-0.4,2.4l-8.2-0.3
		v1.9c0,2.2-0.1,5.7,0.3,6.3c0.4,0.4,2.7,0.5,4.3,0.5s3.2-0.1,4.4-0.3l1-4.4c0.7-0.1,2.4,0.1,3.1,0.1c0.1,2.3,0.1,4.6,0,7H46.7
		l-0.4-1.8L49.5,31.6z"/>
	<path class="st0" d="M92.1,34.5l-3.2-4.3c-3.3-4.4-7.5-9.6-10.8-13.7c0.1,6.4,0.2,14.2,0.6,14.8c0.3,0.5,2.5,0.9,4.1,1.3l-0.3,1.8
		H72l-0.3-1.8l3.2-0.9c0.1-1.2,0.3-4.5,0.3-9.7c-0.1-6.1-0.1-9.1-0.4-9.7c-0.6-0.4-2-0.9-3.2-1.3L72,9.1c2.3,0,4.9-0.1,7-0.1
		c2.5,4.1,8.6,11.8,13.8,18.2c-0.1-7.5-0.2-14.4-0.6-15c-0.3-0.5-2.4-0.9-3.8-1.3l0.4-1.8h10.3l0.4,1.8l-3.2,0.9
		c-0.3,2.8-0.5,11.4-0.5,22.2L92.1,34.5z"/>
	<path class="st0" d="M105.5,31.6c0.1-0.6,0.2-5,0.2-6.7v-6.5c0-2.2,0-6-0.3-6.3c-0.3-0.4-2-0.9-3.2-1.1l0.4-1.8h9.4
		c4.3,0,7.8-0.1,10.7-0.3c0.3,0.3,0.7,0.9,0.9,1.3c-0.3,1.7-0.7,4.5-1,6.2c-0.7,0.1-2.1-0.1-2.9-0.2l-0.7-4.4
		c-1.2-0.1-2.9-0.1-4.4-0.1c-1.4,0-2.8,0.1-4,0.1c-0.1,0.7-0.2,5.1-0.2,6.9v2.1l8.1-0.3l0.6,0.7c-0.1,0.6-0.3,1.7-0.4,2.4l-8.2-0.3
		v1.9c0,2.2-0.1,5.7,0.3,6.3c0.4,0.4,2.7,0.5,4.3,0.5s3.2-0.1,4.4-0.3l1-4.4c0.7-0.1,2.4,0.1,3.1,0.1c0.1,2.3,0.1,4.6,0,7h-20.9
		l-0.4-1.8L105.5,31.6z"/>
	<path class="st0" d="M145.4,10.4l0.5,1c-0.3,1.6-0.7,4.3-1,5.5c-0.7,0.1-2.3,0-3-0.1c-0.2-1.9-0.4-3.4-0.7-4.3c-0.9-0.6-2.3-1-4-1
		c-1.5,0-2.9,0.4-3.8,1c-0.4,0.7-0.8,1.5-0.8,2.6c0,6,13.6,4.4,13.6,12.7c0,4.2-3.7,7.1-9.5,7.1c-3.7,0-7.1-1.3-8.9-2.2l-0.1-0.3
		c-0.1-1.7,0-3.8,0.1-5.3c0.7-0.1,2.6-0.2,3.2-0.1c0.3,1.7,0.6,2.8,0.9,4c1,0.7,3.1,1.2,4.9,1.2c1.7,0,2.8-0.3,3.7-0.7
		c0.5-0.6,0.9-1.5,0.9-2.7c0-5.6-13.4-4-13.4-12.5c0-4.5,4.4-7.5,9.7-7.5C140.9,8.5,143.6,9.3,145.4,10.4z"/>
	<path class="st0" d="M157.5,31.6c0.1-0.6,0.2-3.9,0.2-6.7V11.5H157c-1.5,0-3.2,0.1-4.4,0.2l-1,4.7c-0.7,0.1-2.5,0-3.2-0.1
		c-0.1-2.3-0.1-4.8,0-7.2h12.2c4.2,0,7.7-0.1,10.4-0.2c0.2,0.3,0.7,0.9,0.9,1.2c-0.1,1.9-0.3,4.2-0.6,6.2c-0.7,0.1-2.1,0.1-2.8-0.1
		l-0.9-4.6c-1.2-0.1-2.8-0.2-4.2-0.2h-0.9V25c0,2.2,0,5.8,0.3,6.2c0.3,0.4,2,0.9,3.2,1.2l-0.4,1.8h-10.9l-0.4-1.8L157.5,31.6z"/>
	<path class="st0" d="M180,34.3h-9.9l-0.3-1.8l2.9-0.9c2.4-5.9,4.9-12.6,7.3-18.9l1.1-3.6c1.7-0.2,4.5-0.4,6.1-0.4
		c0.3,1.1,0.7,2.4,1.3,4c2.4,6.6,5.2,14.2,7.1,18.9l3,0.9l-0.3,1.8h-10.9l-0.4-1.8l3.6-0.9c-0.6-1.6-1.3-3.6-2-5.6l-9.7,0.2
		c-0.7,1.9-1.2,3.8-1.8,5.5l3.6,0.9L180,34.3z M187.4,23.4c-1.3-3.6-2.7-7.5-4.2-11.4c-1.3,3.6-2.6,7.5-3.8,11.2L187.4,23.4z"/>
	<path class="st0" d="M202.7,31.6c0.1-0.6,0.2-5,0.2-6.7v-6.5c0-2.2,0-5.8-0.3-6.2c-0.3-0.4-2-0.9-3.2-1.2l0.4-1.8h5.2
		c1.3,0,5.2-0.2,7-0.2c6,0,9.7,2.4,9.7,7.1c0,3.3-2.4,5.4-4.6,6.5c1.5,3,4.2,8,5.1,9.2l2.8,0.9l-0.4,1.8c-2,0-3.8,0.1-6.4,0.1
		c-0.8-1.8-3.4-7.1-5.2-10.6h-5.3v1.2c0,2.2,0,5.8,0.3,6.2c0.3,0.4,2,0.9,3.2,1.2l-0.4,1.8h-10.8l-0.4-1.8L202.7,31.6z M207.6,21
		l6.5,0.2c1.4-0.8,2.8-2.7,2.8-5.1c0-1.7-0.5-2.8-1.3-3.7c-0.9-0.7-2.5-0.9-4.3-0.9c-1.1,0-2.5,0.2-3.5,0.3c-0.1,0.7-0.2,5-0.2,6.7
		L207.6,21L207.6,21z"/>
</g>
<g>
	<path class="st1" d="M8.3,51.1c-0.4-0.1-0.7-0.3-1-0.5l0.5-1C8,49.8,8.3,49.9,8.6,50c0.3,0.1,0.7,0.1,1,0.1c0.4,0,0.7-0.1,0.8-0.2
		c0.1-0.1,0.3-0.3,0.3-0.5c0-0.1-0.1-0.3-0.1-0.3c-0.1-0.1-0.3-0.1-0.4-0.2c-0.1-0.1-0.4-0.1-0.7-0.2c-0.5-0.1-0.8-0.2-1.1-0.3
		c-0.3-0.1-0.5-0.3-0.7-0.5c-0.2-0.2-0.3-0.5-0.3-0.9c0-0.3,0.1-0.6,0.3-0.9c0.2-0.3,0.5-0.5,0.8-0.7c0.3-0.2,0.8-0.3,1.3-0.3
		c0.3,0,0.7,0.1,1.1,0.1s0.7,0.2,0.9,0.4l-0.4,1c-0.5-0.3-1.1-0.5-1.6-0.5c-0.4,0-0.7,0.1-0.8,0.2c-0.1,0.1-0.3,0.3-0.3,0.5
		c0,0.2,0.1,0.3,0.3,0.5c0.2,0.1,0.5,0.2,0.9,0.3c0.5,0.1,0.8,0.2,1.1,0.3c0.3,0.1,0.5,0.3,0.7,0.5c0.2,0.2,0.3,0.5,0.3,0.9
		c0,0.3-0.1,0.6-0.3,0.9c-0.2,0.3-0.5,0.5-0.8,0.7s-0.8,0.3-1.3,0.3C9.2,51.3,8.7,51.2,8.3,51.1z"/>
	<path class="st1" d="M17.6,50.1v1.1h-4.4v-5.7h4.4v1.1h-3v1.3h2.7v1h-2.7v1.3L17.6,50.1L17.6,50.1z"/>
	<path class="st1" d="M20,50.9c-0.5-0.3-0.9-0.6-1.1-1.1c-0.3-0.5-0.4-0.9-0.4-1.5c0-0.5,0.1-1.1,0.4-1.5c0.3-0.5,0.7-0.8,1.1-1.1
		c0.5-0.3,1-0.4,1.6-0.4c0.5,0,0.9,0.1,1.3,0.3c0.4,0.2,0.7,0.4,1,0.7L23.1,47c-0.4-0.5-0.9-0.7-1.4-0.7c-0.3,0-0.7,0.1-0.9,0.2
		c-0.3,0.1-0.5,0.4-0.7,0.7c-0.1,0.3-0.2,0.6-0.2,0.9s0.1,0.7,0.2,0.9s0.4,0.5,0.7,0.7c0.3,0.1,0.6,0.2,0.9,0.2
		c0.6,0,1.1-0.2,1.4-0.7l0.9,0.8c-0.3,0.3-0.6,0.6-1,0.7c-0.4,0.2-0.9,0.3-1.3,0.3C21,51.3,20.5,51.1,20,50.9z"/>
	<path class="st1" d="M28.7,51.2l-1.1-1.6h-0.1h-1.1v1.6h-1.3v-5.7h2.5c0.5,0,0.9,0.1,1.3,0.3c0.4,0.2,0.7,0.4,0.9,0.7
		c0.2,0.3,0.3,0.7,0.3,1.1s-0.1,0.8-0.3,1.1c-0.2,0.3-0.5,0.5-0.9,0.7l1.3,1.8L28.7,51.2L28.7,51.2z M28.4,46.8
		c-0.2-0.2-0.5-0.3-0.9-0.3h-1.1v2h1.1c0.4,0,0.7-0.1,0.9-0.3c0.2-0.2,0.3-0.4,0.3-0.7S28.6,47,28.4,46.8z"/>
	<path class="st1" d="M35.7,50.1v1.1h-4.4v-5.7h4.4v1.1h-3v1.3h2.7v1h-2.7v1.3L35.7,50.1L35.7,50.1z"/>
	<path class="st1" d="M38.2,46.5h-1.8v-1.1h5v1.1h-1.8v4.6h-1.3L38.2,46.5L38.2,46.5z"/>
	<path class="st1" d="M45.8,49.9h-2.7l-0.5,1.2h-1.3l2.6-5.7h1.3l2.6,5.7h-1.4L45.8,49.9z M45.3,48.9l-0.9-2.2l-0.9,2.2H45.3z"/>
	<path class="st1" d="M52.1,51.2L51,49.6H51h-1.1v1.6h-1.3v-5.7H51c0.5,0,0.9,0.1,1.3,0.3c0.4,0.2,0.7,0.4,0.9,0.7
		c0.2,0.3,0.3,0.7,0.3,1.1s-0.1,0.8-0.3,1.1c-0.2,0.3-0.5,0.5-0.9,0.7l1.3,1.8L52.1,51.2L52.1,51.2z M51.8,46.8
		c-0.2-0.2-0.5-0.3-0.9-0.3h-1.1v2h1.1c0.4,0,0.7-0.1,0.9-0.3c0.2-0.2,0.3-0.4,0.3-0.7S52,47,51.8,46.8z"/>
	<path class="st1" d="M55.7,43.8h1.3L55.6,45h-1L55.7,43.8z M54.7,45.4h1.3v5.7h-1.3V45.4z"/>
	<path class="st1" d="M61.4,49.9h-2.7l-0.5,1.2h-1.3l2.6-5.7h1.3l2.6,5.7h-1.4L61.4,49.9z M61,48.9L60,46.7l-0.9,2.2H61z"/>
	<path class="st1" d="M66.6,45.4h2.6c0.6,0,1.1,0.1,1.7,0.3c0.5,0.3,0.9,0.6,1.1,1c0.3,0.4,0.4,0.9,0.4,1.5c0,0.5-0.1,1.1-0.4,1.5
		c-0.3,0.4-0.6,0.7-1.1,1c-0.5,0.3-1,0.3-1.7,0.3h-2.6V45.4z M69.2,50c0.6,0,1-0.1,1.3-0.5c0.3-0.3,0.5-0.7,0.5-1.3s-0.2-1-0.5-1.3
		c-0.3-0.3-0.8-0.5-1.3-0.5h-1.2v3.6L69.2,50L69.2,50z"/>
	<path class="st1" d="M78,50.1v1.1h-4.4v-5.7H78v1.1h-3v1.3h2.7v1h-2.7v1.3L78,50.1L78,50.1z"/>
	<path class="st1" d="M86.8,48.7C87,49,87,49.2,87,49.6c0,0.5-0.2,0.9-0.6,1.1c-0.4,0.3-0.9,0.4-1.7,0.4h-3v-5.7h2.8
		c0.7,0,1.2,0.1,1.6,0.4c0.4,0.3,0.5,0.6,0.5,1.1c0,0.3-0.1,0.5-0.2,0.7c-0.1,0.2-0.3,0.4-0.5,0.5C86.4,48.3,86.6,48.4,86.8,48.7z
		 M83.1,46.4v1.3h1.3c0.3,0,0.6-0.1,0.7-0.2c0.2-0.1,0.3-0.3,0.3-0.5c0-0.3-0.1-0.4-0.3-0.5c-0.2-0.1-0.4-0.2-0.7-0.2h-1.3V46.4z
		 M85.4,50c0.2-0.1,0.3-0.3,0.3-0.5c0-0.5-0.3-0.7-1.1-0.7h-1.5v1.4h1.5C85,50.2,85.3,50.1,85.4,50z"/>
	<path class="st1" d="M88.2,45.4h1.3v5.7h-1.3V45.4z"/>
	<path class="st1" d="M95.6,50.1v1.1h-4.4v-5.7h4.4v1.1h-3v1.3h2.7v1h-2.7v1.3L95.6,50.1L95.6,50.1z"/>
	<path class="st1" d="M102.1,45.4v5.7h-1.1l-2.9-3.5v3.5h-1.3v-5.7h1.1l2.8,3.5v-3.5H102.1z"/>
	<path class="st1" d="M108.1,50.1v1.1h-4.4v-5.7h4.4v1.1h-3v1.3h2.7v1H105v1.3L108.1,50.1L108.1,50.1z"/>
	<path class="st1" d="M109.9,51.1c-0.4-0.1-0.7-0.3-1-0.5l0.5-1c0.3,0.2,0.5,0.3,0.9,0.4c0.3,0.1,0.7,0.1,1,0.1
		c0.4,0,0.7-0.1,0.8-0.2c0.2-0.1,0.3-0.3,0.3-0.5c0-0.1-0.1-0.3-0.1-0.3c-0.1-0.1-0.3-0.1-0.4-0.2c-0.1-0.1-0.4-0.1-0.7-0.2
		c-0.5-0.1-0.8-0.2-1.1-0.3c-0.3-0.1-0.5-0.3-0.7-0.5c-0.2-0.2-0.3-0.5-0.3-0.9c0-0.3,0.1-0.6,0.3-0.9c0.2-0.3,0.5-0.5,0.8-0.7
		c0.3-0.1,0.8-0.3,1.3-0.3c0.3,0,0.7,0.1,1.1,0.1c0.3,0.1,0.7,0.2,0.9,0.4l-0.4,1c-0.5-0.3-1.1-0.5-1.6-0.5c-0.4,0-0.7,0.1-0.8,0.2
		c-0.2,0.1-0.3,0.3-0.3,0.5c0,0.2,0.1,0.3,0.3,0.5c0.2,0.1,0.5,0.2,0.9,0.3c0.5,0.1,0.8,0.2,1.1,0.3s0.5,0.3,0.7,0.5
		c0.2,0.2,0.3,0.5,0.3,0.9c0,0.3-0.1,0.6-0.3,0.9s-0.5,0.5-0.8,0.7c-0.3,0.1-0.8,0.3-1.3,0.3C110.8,51.3,110.4,51.2,109.9,51.1z"/>
	<path class="st1" d="M115.9,46.5h-1.8v-1.1h5v1.1h-1.8v4.6h-1.3L115.9,46.5L115.9,46.5z"/>
	<path class="st1" d="M123.5,49.9h-2.7l-0.5,1.2h-1.3l2.6-5.7h1.3l2.6,5.7H124L123.5,49.9z M123.1,48.9l-0.9-2.2l-0.9,2.2H123.1z"/>
	<path class="st1" d="M129.8,51.2l-1.1-1.6h-0.1h-1.1v1.6h-1.3v-5.7h2.5c0.5,0,0.9,0.1,1.3,0.3c0.4,0.2,0.7,0.4,0.9,0.7
		s0.3,0.7,0.3,1.1s-0.1,0.8-0.3,1.1c-0.2,0.3-0.5,0.5-0.9,0.7l1.3,1.8L129.8,51.2L129.8,51.2z M129.5,46.8c-0.2-0.2-0.5-0.3-0.9-0.3
		h-1.1v2h1.1c0.4,0,0.7-0.1,0.9-0.3c0.2-0.2,0.3-0.4,0.3-0.7S129.7,47,129.5,46.8z"/>
</g>
</svg>
